#N canvas 654 44 1145 1097 12;
#X floatatom 592 191 8 0 0 0 - - - 0;
#X msg 478 194 clear;
#X obj 532 192 noise~;
#X text 665 121 <-- set cutoff frequency;
#X obj 667 97 hsl 169 18 50 5000 0 0 empty empty empty -2 -10 0 12 #dfdfdf #000000 #000000 0 1;
#X obj 532 218 hip~ 500;
#X text 538 138 comment;
#X obj 645 10 loadbang;
#X msg 646 41 523;
#X msg 899 143 close;
#X msg 888 94 devices;
#X floatatom 978 124 5 0 0 0 - - - 0;
#X msg 978 143 open \$1;
#X obj 888 230 list prepend;
#X obj 888 252 list trim;
#X obj 888 208 serial_print any;
#X obj 899 121 loadbang;
#X msg 1006 83 1;
#X obj 1005 46 loadbang;
#X obj 888 186 comport 1 9600;
#X obj 888 291 unpack f f f;
#X floatatom 927 342 5 0 0 0 - - - 0;
#X obj 928 371 cyclone/scale 0 150 1 0;
#X floatatom 928 403 5 0 0 0 - - - 0;
#X obj 676 191 cyclone/scale 0 150 300 5000;
#X floatatom 676 215 5 0 0 0 - - - 0;
#X obj 534 337 dac~ 1 2;
#X obj 532 266 *~;
#X msg 723 44 \; pd dsp 1;
#X obj 534 655 route;
#X floatatom 746 528 5 0 0 0 - - - 0;
#X floatatom 807 503 5 0 0 0 - - - 0;
#X obj 748 474 moses 149;
#X obj 813 654 cyclone/line~;
#X floatatom 159 343 5 0 0 0 - - - 0;
#X floatatom 87 260 5 0 0 0 - - - 0;
#X floatatom 136 317 5 0 0 0 - - - 0;
#X msg 90 438 6 symbol 0 0;
#X obj 814 702 cyclone/snapshot~ 1;
#X floatatom 821 751 5 0 0 0 - - - 0;
#X msg 774 589 0 10 500;
#X obj 408 760 hex;
#X obj 211 658 print;
#X floatatom 230 573 5 0 0 0 - - - 0;
#X obj 208 607 cyclone/append ( \, );
#X obj 303 537 symbol;
#X msg 112 285 \,;
#X obj 89 377 pack 0 s 0 0;
#X msg 89 406 set \$1 \$2 \$3 \$4;
#X connect 0 0 5 1;
#X connect 1 0 5 0;
#X connect 2 0 5 0;
#X connect 4 0 0 0;
#X connect 5 0 27 0;
#X connect 7 0 8 0;
#X connect 7 0 28 0;
#X connect 8 0 4 0;
#X connect 9 0 19 0;
#X connect 10 0 19 0;
#X connect 11 0 12 0;
#X connect 12 0 19 0;
#X connect 13 0 14 0;
#X connect 14 0 20 0;
#X connect 15 0 13 0;
#X connect 15 1 13 1;
#X connect 16 0 9 0;
#X connect 17 0 11 0;
#X connect 18 0 17 0;
#X connect 19 0 15 0;
#X connect 20 1 21 0;
#X connect 21 0 22 0;
#X connect 21 0 24 0;
#X connect 21 0 32 0;
#X connect 22 0 23 0;
#X connect 23 0 27 1;
#X connect 24 0 25 0;
#X connect 25 0 4 0;
#X connect 27 0 26 0;
#X connect 27 0 26 1;
#X connect 30 0 35 0;
#X connect 32 0 30 0;
#X connect 32 1 31 0;
#X connect 33 0 38 0;
#X connect 34 0 47 3;
#X connect 35 0 47 0;
#X connect 36 0 47 2;
#X connect 38 0 39 0;
#X connect 40 0 33 0;
#X connect 43 0 44 0;
#X connect 44 0 42 0;
#X connect 46 0 47 1;
#X connect 47 0 48 0;
#X connect 48 0 37 0;
