#N canvas 543 414 1228 759 12;
#X floatatom 383 178 8 0 0 0 - - - 0;
#X msg 269 181 clear;
#X obj 323 179 noise~;
#X text 456 108 <-- set cutoff frequency;
#X obj 458 84 hsl 169 18 50 5000 0 0 empty empty empty -2 -10 0 12 #dcdcdc #000000 #000000 0 1;
#X obj 323 205 hip~ 500;
#X text 329 125 comment;
#X obj 436 -3 loadbang;
#X msg 437 28 523;
#X msg 758 107 close;
#X msg 747 58 devices;
#X floatatom 857 78 5 0 0 0 - - - 0;
#X msg 837 107 open \$1;
#X obj 758 85 loadbang;
#X msg 856 51 1;
#X obj 779 -2 loadbang;
#X floatatom 775 485 5 0 0 0 - - - 0;
#X floatatom 778 699 5 0 0 0 - - - 0;
#X obj 467 178 cyclone/scale 0 150 300 5000;
#X floatatom 467 202 5 0 0 0 - - - 0;
#X obj 426 436 dac~ 1 2;
#X obj 424 365 *~;
#X msg 514 31 \; pd dsp 1;
#X obj 1051 426 cyclone/line~;
#X obj 1052 474 cyclone/snapshot~ 1;
#X floatatom 1059 523 5 0 0 0 - - - 0;
#X msg 1012 361 0 10 500;
#X obj 211 654 print;
#X floatatom 230 569 5 0 0 0 - - - 0;
#X obj 208 603 cyclone/append ( \, );
#X obj 303 533 symbol;
#X obj 233 132 osc~ 1025;
#X msg 250 10 6.094;
#X obj 283 39 osc~;
#X obj 203 109 *~;
#X obj 103 151 clip~ -1 1;
#X obj 112 215 *~;
#X msg 202 240 0.311;
#X obj 220 284 expr 1-$f1;
#X obj 303 379 +~;
#X floatatom 158 28 5 0 0 0 - - - 0;
#X obj 673 32 delay 50;
#X obj 675 72 delay 100;
#X obj 777 29 delay 150;
#X obj 879 22 delay 200;
#X obj 778 653 cyclone/scale 0 239 1 0;
#X floatatom 905 81 5 0 0 0 - - - 0;
#X msg 904 54 0;
#X obj 36 595 cyclone/zl group 100;
#X obj 758 268 cyclone/zl group 100;
#X obj 754 315 list tosymbol;
#X obj 774 377 cyclone/fromsymbol;
#X obj 774 416 min 239;
#X obj 761 162 comport 1 9600;
#X obj 776 532 clip 0 239;
#X floatatom 775 574 5 0 0 0 - - - 0;
#X obj 760 212 sel 13 10;
#X obj 865 442 print sensor1;
#X obj 932 243 bng 15 250 50 0 empty empty empty 17 7 0 10 #fcfcfc #000000 #000000;
#X obj 934 175 tgl 15 0 empty empty empty 17 7 0 10 #fcfcfc #000000 #000000 0 1;
#X obj 1004 142 loadbang;
#X obj 1008 34 delay 50;
#X obj 933 205 metro 4;
#X msg 298 75 15;
#X connect 0 0 5 1;
#X connect 1 0 5 0;
#X connect 2 0 5 0;
#X connect 4 0 0 0;
#X connect 5 0 39 0;
#X connect 7 0 8 0;
#X connect 7 0 22 0;
#X connect 7 0 32 0;
#X connect 7 0 63 0;
#X connect 7 0 37 0;
#X connect 8 0 4 0;
#X connect 9 0 53 0;
#X connect 10 0 53 0;
#X connect 11 0 9 0;
#X connect 11 0 12 0;
#X connect 12 0 53 0;
#X connect 13 0 9 0;
#X connect 14 0 11 0;
#X connect 15 0 14 0;
#X connect 15 0 41 0;
#X connect 15 0 42 0;
#X connect 15 0 43 0;
#X connect 15 0 44 0;
#X connect 16 0 54 0;
#X connect 17 0 21 1;
#X connect 18 0 19 0;
#X connect 19 0 4 0;
#X connect 21 0 20 0;
#X connect 21 0 20 1;
#X connect 23 0 24 0;
#X connect 24 0 25 0;
#X connect 26 0 23 0;
#X connect 28 0 29 0;
#X connect 29 0 27 0;
#X connect 31 0 39 0;
#X connect 32 0 33 0;
#X connect 33 0 34 0;
#X connect 34 0 35 0;
#X connect 35 0 36 0;
#X connect 36 0 39 0;
#X connect 36 0 39 1;
#X connect 37 0 38 0;
#X connect 37 0 36 1;
#X connect 38 0 39 1;
#X connect 39 0 21 0;
#X connect 40 0 63 0;
#X connect 41 0 10 0;
#X connect 42 0 9 0;
#X connect 43 0 12 0;
#X connect 44 0 14 0;
#X connect 44 0 61 0;
#X connect 45 0 17 0;
#X connect 46 0 12 0;
#X connect 47 0 46 0;
#X connect 49 0 50 0;
#X connect 50 0 51 0;
#X connect 51 0 52 0;
#X connect 51 0 57 0;
#X connect 52 0 16 0;
#X connect 53 0 56 0;
#X connect 54 0 55 0;
#X connect 54 0 18 0;
#X connect 55 0 45 0;
#X connect 56 0 49 0;
#X connect 56 2 49 0;
#X connect 58 0 49 0;
#X connect 59 0 62 0;
#X connect 60 0 59 0;
#X connect 61 0 47 0;
#X connect 62 0 58 0;
#X connect 63 0 34 1;
