#N canvas 527 44 1145 1097 12;
#X floatatom 592 191 8 0 0 0 - - - 0;
#X msg 478 194 clear;
#X obj 532 192 noise~;
#X text 665 121 <-- set cutoff frequency;
#X obj 667 97 hsl 169 18 50 5000 0 0 empty empty empty -2 -10 0 12 #dfdfdf #000000 #000000 0 1;
#X obj 532 218 hip~ 500;
#X text 538 138 comment;
#X obj 645 10 loadbang;
#X msg 646 41 523;
#X msg 899 143 close;
#X msg 888 94 devices;
#X floatatom 978 110 5 0 0 0 - - - 0;
#X msg 978 143 open \$1;
#X obj 888 230 list prepend;
#X obj 888 252 list trim;
#X obj 888 208 serial_print any;
#X obj 899 121 loadbang;
#X msg 981 77 1;
#X obj 1000 19 loadbang;
#X obj 888 186 comport 1 9600;
#X obj 888 291 unpack f f f;
#X floatatom 949 326 0 0 0 0 - - - 0;
#X floatatom 928 445 5 0 0 0 - - - 0;
#X obj 676 191 cyclone/scale 0 150 300 5000;
#X floatatom 676 215 5 0 0 0 - - - 0;
#X msg 723 44 \; pd dsp 1;
#X obj 682 510 osc~;
#X obj 683 576 *~;
#X obj 683 627 clip~ -1 1;
#X obj 589 457 *~;
#X obj 740 552 hsl 128 15 1 20 1 0 empty empty empty -2 -8 0 10 #fcfcfc #000000 #000000 0 1;
#X obj 685 482 hsl 128 15 0.5 25 0 0 empty empty empty -2 -8 0 10 #fcfcfc #000000 #000000 0 1;
#X text 733 511 <-- Sine wave (between -1 and 1);
#X text 722 576 <-- Multipled by a positive number X;
#X text 744 590 (between -X and X);
#X text 754 627 <-- Trim at -1 and 1;
#X text 777 655 a square wave as X increases);
#X text 777 641 (the sine wave tends to become;
#X text 823 726 <-- Normalize between 0 and 1;
#X text 681 467 Frequency of the oscillator;
#X text 735 537 Number X (between 1 and 20 \, log);
#X obj 683 710 *~;
#X obj 683 739 +~;
#X obj 763 693 hsl 128 15 0 0.5 0 0 empty empty empty -2 -8 0 10 #fcfcfc #000000 #000000 0 1;
#X floatatom 760 712 5 0 0 0 - - - 0;
#X obj 746 739 expr 1-$f1;
#X floatatom 746 761 5 0 0 0 - - - 0;
#X text 846 738 and adjust depth;
#X text 849 467 ("Rate");
#X text 757 676 "Depth";
#X obj 346 171 osc~ 1040;
#X obj 512 627 dac~;
#X obj 532 266 *~;
#X obj 462 271 *~;
#X msg 133 107 \; pd dsp 0;
#X obj 1046 50 metro 100;
#X obj 1054 82 metro 500;
#X obj 657 362 max;
#X floatatom 1043 340 5 0 0 0 - - - 0;
#X obj 928 371 cyclone/scale 0 240 1 0;
#X obj 1065 133 metro 500;
#X obj 1009 292 min 239;
#X obj 1043 316 max 0;
#X msg 695 410 10.91;
#X msg 972 690 0.358;
#X obj 1010 605 loadbang;
#X msg 1001 504 15;
#X connect 0 0 5 1;
#X connect 1 0 5 0;
#X connect 2 0 5 0;
#X connect 4 0 0 0;
#X connect 5 0 52 0;
#X connect 7 0 8 0;
#X connect 7 0 25 0;
#X connect 7 0 63 0;
#X connect 8 0 4 0;
#X connect 9 0 19 0;
#X connect 10 0 19 0;
#X connect 11 0 12 0;
#X connect 12 0 19 0;
#X connect 13 0 14 0;
#X connect 14 0 20 0;
#X connect 15 0 13 0;
#X connect 15 1 13 1;
#X connect 16 0 9 0;
#X connect 17 0 11 0;
#X connect 18 0 55 0;
#X connect 18 0 56 0;
#X connect 18 0 9 0;
#X connect 19 0 15 0;
#X connect 20 0 61 0;
#X connect 21 0 23 0;
#X connect 21 0 62 0;
#X connect 22 0 53 1;
#X connect 22 0 52 1;
#X connect 23 0 24 0;
#X connect 24 0 4 0;
#X connect 26 0 27 0;
#X connect 27 0 28 0;
#X connect 28 0 41 0;
#X connect 29 0 51 0;
#X connect 29 0 51 1;
#X connect 30 0 27 1;
#X connect 31 0 26 0;
#X connect 41 0 42 0;
#X connect 42 0 29 1;
#X connect 43 0 44 0;
#X connect 43 0 41 1;
#X connect 43 0 45 0;
#X connect 45 0 42 1;
#X connect 45 0 46 0;
#X connect 50 0 53 0;
#X connect 52 0 51 1;
#X connect 52 0 51 0;
#X connect 53 0 29 0;
#X connect 55 0 17 0;
#X connect 56 0 12 0;
#X connect 56 0 60 0;
#X connect 58 0 59 0;
#X connect 59 0 22 0;
#X connect 60 0 11 0;
#X connect 61 0 21 0;
#X connect 62 0 58 0;
#X connect 63 0 31 0;
#X connect 64 0 43 0;
#X connect 65 0 64 0;
#X connect 65 0 66 0;
#X connect 66 0 30 0;
